<svg xmlns="http://www.w3.org/2000/svg" width="800px" height="800px" fill="none" viewBox="0 0 24 24"><path stroke="#000" stroke-linecap="round" stroke-linejoin="round" stroke-width="2" d="m5.136 12.764 3.019-3.677c.308-.396.462-.594.542-.816a1.5 1.5 0 0 0 .087-.615c-.016-.235-.11-.468-.296-.934l-.71-1.777c-.276-.69-.414-1.034-.652-1.26A1.5 1.5 0 0 0 6.37 3.3c-.322-.061-.682.029-1.403.21L3 4c0 10 7 17 17 17l.492-1.968c.18-.72.27-1.08.21-1.402a1.5 1.5 0 0 0-.388-.757c-.225-.238-.57-.375-1.26-.651l-1.585-.634c-.531-.213-.797-.32-1.062-.327a1.5 1.5 0 0 0-.679.14c-.24.111-.443.313-.847.718l-3.054 3.054M13 7a5 5 0 0 1 3.95 3.95M13 3a9 9 0 0 1 7.95 7.94"/></svg>