<svg xmlns="http://www.w3.org/2000/svg" width="48" height="48" x="0px" y="0px" viewBox="0 0 48 48"><path fill="#b71c1c" d="M40 42H8a2 2 0 0 1-2-2V8a2 2 0 0 1 2-2h32a2 2 0 0 1 2 2v32a2 2 0 0 1-2 2"/><circle cx="24" cy="24" r="2" fill="#212121"/><path fill="#212121" d="M23.567 24.25c-1.715-2.042-2.079-5.328-.696-7.901.648-1.302 1.715-2.398 2.96-3.178 1.272-.724 2.745-1.2 4.232-1.155 2.978-.03 5.855 1.768 7.146 4.359 1.351 2.566 1.037 5.811-.651 7.875l-.866-.499c.797-2.167.492-4.461-.652-6.124-1.148-1.652-3.038-2.675-4.979-2.632-1.919.003-3.818 1.005-4.923 2.66-1.139 1.65-1.445 3.903-.706 6.095z"/><path fill="#212121" d="M24 24.5c-2.626.464-5.654-.863-7.19-3.348-.804-1.212-1.219-2.685-1.272-4.153.009-1.464.333-2.977 1.116-4.243 1.463-2.594 4.459-4.186 7.348-4.009 2.898.113 5.551 2.007 6.495 4.502l-.867.501c-1.478-1.773-3.617-2.657-5.629-2.497-2.005.168-3.836 1.293-4.769 2.995-.957 1.664-1.038 3.809-.157 5.593.859 1.811 2.658 3.203 4.925 3.658z"/><path fill="#212121" d="M24.433 24.25c-.911 2.506-3.574 4.464-6.495 4.553-1.451.09-2.935-.286-4.232-.975-1.263-.74-2.412-1.777-3.117-3.088-1.514-2.564-1.396-5.955.202-8.368 1.547-2.453 4.514-3.804 7.146-3.374l.001 1c-2.275.393-4.11 1.804-4.977 3.627-.857 1.82-.798 3.968.21 5.628.963 1.661 2.779 2.804 4.765 2.933 1.998.162 4.103-.7 5.631-2.436z"/><path fill="#212121" d="M24.433 23.75c1.715 2.042 2.079 5.328.696 7.901-.648 1.302-1.715 2.398-2.96 3.178-1.272.724-2.745 1.2-4.232 1.155-2.978.03-5.855-1.768-7.146-4.359-1.351-2.566-1.037-5.811.651-7.875l.866.499c-.797 2.167-.492 4.461.652 6.124 1.148 1.652 3.038 2.675 4.979 2.632 1.919-.003 3.818-1.005 4.923-2.66 1.139-1.65 1.445-3.903.706-6.095z"/><path fill="#212121" d="M24 23.5c2.626-.464 5.654.863 7.19 3.348.804 1.212 1.219 2.685 1.272 4.153-.009 1.464-.333 2.977-1.116 4.243-1.463 2.594-4.459 4.186-7.348 4.009-2.898-.113-5.551-2.007-6.495-4.502l.866-.501c1.478 1.773 3.617 2.657 5.629 2.497 2.005-.168 3.836-1.293 4.769-2.995.957-1.664 1.038-3.809.157-5.593-.858-1.812-2.657-3.204-4.924-3.659z"/><path fill="#212121" d="M23.567 23.75c.911-2.506 3.574-4.464 6.495-4.553 1.451-.09 2.935.286 4.232.975 1.263.74 2.412 1.777 3.117 3.088 1.514 2.564 1.396 5.955-.202 8.368-1.547 2.453-4.514 3.804-7.146 3.374l-.001-1c2.275-.393 4.11-1.804 4.977-3.627.857-1.82.798-3.968-.21-5.628-.963-1.661-2.779-2.804-4.765-2.933-1.998-.162-4.103.7-5.631 2.436z"/></svg>